# xmcd
#
# Track frame offsets:
#	150
#	13261
#	29637
#	43953
#	59449
#	72315
#	84387
#	99833
#	113643
#	129036
#	142584
#	158466
#	176292
#	191781
#	206449
#
# Disc length: 2985 seconds
#
# Revision: 0
# Processed by: cddbd v1.4PL0 Copyright (c) Steve Scherf et al.
# Submitted via: EasyCDDAExtractor 4.6.0.1
#
DISCID=be0ba70f
DTITLE=Grupo Miramar - 15 Exitos De Oro
DYEAR=1999
DGENRE=latin
TTITLE0=Una Lagrima y Un Recuerdo
TTITLE1=Pobres Niños
TTITLE2=Pobreza Fatal
TTITLE3=Aquel Inmenso Amor
TTITLE4=El Libro De Los Dioses
TTITLE5=Que Nos Entierren Juntos
TTITLE6=Con Una Lagrima En La Garganta
TTITLE7=Dos Almas
TTITLE8=A Mi Madre
TTITLE9=Limosna De Un Hilo
TTITLE10=Lo Saben Todos
TTITLE11=Maria Isabel
TTITLE12=Flor Sin Reloño
TTITLE13=Ofelia
TTITLE14=Si Prefieres A El
EXTD=
EXTT0=
EXTT1=
EXTT2=
EXTT3=
EXTT4=
EXTT5=
EXTT6=
EXTT7=
EXTT8=
EXTT9=
EXTT10=
EXTT11=
EXTT12=
EXTT13=
EXTT14=
PLAYORDER=
